<?xml version="1.0" encoding="utf-8"?>
<svg id="master-artboard" viewBox="0 0 400 120" version="1.1" xmlns="http://www.w3.org/2000/svg" x="0px" y="0px" style="enable-background:new 0 0 336 235.2;" width="400px" height="120px"><rect id="ee-background" x="0" y="0" width="400" height="120" style="fill: white; fill-opacity: 0; pointer-events: none;" transform="matrix(1, 0, 0, 1, 0, 6)"/><defs><style id="ee-google-fonts">@import url(https://fonts.googleapis.com/css?family=Doppio+One:400);</style></defs>





















































































































































<g transform="matrix(3.5, 0, 0, -0.5, -179.51165771484375, 115.07076263427734)"><g id="g-3" transform="matrix(1, 0, 0, 1, 0, 0)">
	<g id="g-4">
		<path class="st0" d="M58,49h100v100H58V49z" style="fill: rgb(95, 157, 211); fill-opacity: 0.4;"/>
	</g>
</g></g><path d="M 595.3756103515625 518.0511474609375 L 605.3856201171875 518.0511474609375 L 606.0656127929688 523.6611328125 C 608.6056518554688 522.0011596679688 611.4522705078125 520.634521484375 614.6056518554688 519.5611572265625 C 617.765625 518.48779296875 621.3156127929688 517.8544921875 625.255615234375 517.6611328125 L 625.1556396484375 529.671142578125 C 621.0889892578125 529.73779296875 617.5656127929688 529.941162109375 614.5856323242188 530.2811279296875 C 611.6056518554688 530.6211547851562 609.0589599609375 531.2144775390625 606.9456176757812 532.0611572265625 L 606.9456176757812 569.5611572265625 L 595.3756103515625 569.5611572265625 L 595.3756103515625 518.0511474609375 ZM 629.1884765625 543.7811279296875 C 629.1884765625 539.421142578125 629.6618041992188 535.5545043945312 630.6084594726562 532.18115234375 C 631.5484619140625 528.8145141601562 633.0184326171875 525.9744873046875 635.0184326171875 523.6611328125 C 637.025146484375 521.3478393554688 639.5584716796875 519.5911865234375 642.6184692382812 518.3911743164062 C 645.678466796875 517.1845092773438 649.3384399414062 516.5811767578125 653.5984497070312 516.5811767578125 C 657.8651123046875 516.5811767578125 661.5350952148438 517.1845092773438 664.6084594726562 518.3911743164062 C 667.6884765625 519.5911865234375 670.2218017578125 521.3478393554688 672.2084350585938 523.6611328125 C 674.1951293945312 525.9744873046875 675.658447265625 528.8145141601562 676.5984497070312 532.18115234375 C 677.5451049804688 535.5545043945312 678.0184326171875 539.421142578125 678.0184326171875 543.7811279296875 C 678.0184326171875 548.1411743164062 677.5451049804688 552.0211791992188 676.5984497070312 555.421142578125 C 675.658447265625 558.8278198242188 674.1951293945312 561.6845092773438 672.2084350585938 563.9911499023438 C 670.2218017578125 566.3045043945312 667.6884765625 568.0645141601562 664.6084594726562 569.2711791992188 C 661.5350952148438 570.4711303710938 657.8651123046875 571.0711669921875 653.5984497070312 571.0711669921875 C 649.3384399414062 571.0711669921875 645.678466796875 570.4711303710938 642.6184692382812 569.2711791992188 C 639.5584716796875 568.0645141601562 637.025146484375 566.3045043945312 635.0184326171875 563.9911499023438 C 633.0184326171875 561.6845092773438 631.5484619140625 558.8278198242188 630.6084594726562 555.421142578125 C 629.6618041992188 552.0211791992188 629.1884765625 548.1411743164062 629.1884765625 543.7811279296875 M 653.5984497070312 561.2611694335938 C 656.1717529296875 561.2611694335938 658.255126953125 560.8778076171875 659.8484497070312 560.1111450195312 C 661.4484252929688 559.344482421875 662.6851196289062 558.2211303710938 663.5584716796875 556.7411499023438 C 664.4384765625 555.2611694335938 665.0350952148438 553.4378051757812 665.3484497070312 551.2711791992188 C 665.6550903320312 549.1111450195312 665.8084716796875 546.614501953125 665.8084716796875 543.7811279296875 C 665.8084716796875 540.9811401367188 665.6550903320312 538.497802734375 665.3484497070312 536.3311767578125 C 665.0350952148438 534.171142578125 664.4384765625 532.3478393554688 663.5584716796875 530.8611450195312 C 662.6851196289062 529.3811645507812 661.4484252929688 528.2578125 659.8484497070312 527.4911499023438 C 658.255126953125 526.7311401367188 656.1717529296875 526.3511352539062 653.5984497070312 526.3511352539062 C 651.0651245117188 526.3511352539062 648.9984741210938 526.7311401367188 647.3984375 527.4911499023438 C 645.8051147460938 528.2578125 644.561767578125 529.3811645507812 643.66845703125 530.8611450195312 C 642.7684326171875 532.3478393554688 642.1651000976562 534.171142578125 641.8584594726562 536.3311767578125 C 641.5517578125 538.497802734375 641.3984375 540.9811401367188 641.3984375 543.7811279296875 C 641.3984375 546.614501953125 641.5517578125 549.1111450195312 641.8584594726562 551.2711791992188 C 642.1651000976562 553.4378051757812 642.7684326171875 555.2611694335938 643.66845703125 556.7411499023438 C 644.561767578125 558.2211303710938 645.8051147460938 559.344482421875 647.3984375 560.1111450195312 C 648.9984741210938 560.8778076171875 651.0651245117188 561.2611694335938 653.5984497070312 561.2611694335938 ZM 688.2048950195312 493.68115234375 L 699.77490234375 493.68115234375 L 699.77490234375 520.2411499023438 C 701.3015747070312 519.594482421875 702.9615478515625 518.9945068359375 704.7548828125 518.441162109375 C 706.3148803710938 517.9811401367188 708.1382446289062 517.5578002929688 710.2249145507812 517.171142578125 C 712.304931640625 516.77783203125 714.56494140625 516.5811767578125 717.0048828125 516.5811767578125 C 720.458251953125 516.5811767578125 723.31494140625 517.191162109375 725.5748901367188 518.4111328125 C 727.841552734375 519.6311645507812 729.6416015625 521.4044799804688 730.9749145507812 523.7311401367188 C 732.3082275390625 526.0645141601562 733.2449340820312 528.8978271484375 733.784912109375 532.2311401367188 C 734.3182373046875 535.5711669921875 734.5848999023438 539.3544921875 734.5848999023438 543.5811767578125 C 734.5848999023438 548.6611328125 734.17822265625 552.9445190429688 733.3649291992188 556.43115234375 C 732.5515747070312 559.9111328125 731.381591796875 562.7411499023438 729.8549194335938 564.921142578125 C 728.3215942382812 567.1011352539062 726.4249267578125 568.671142578125 724.1649169921875 569.6311645507812 C 721.8982543945312 570.5911865234375 719.3348999023438 571.0711669921875 716.4749145507812 571.0711669921875 C 714.0015869140625 571.0711669921875 711.6982421875 570.787841796875 709.5648803710938 570.2211303710938 C 707.4315795898438 569.6478271484375 705.5682373046875 569.0045166015625 703.9749145507812 568.2911376953125 C 702.1149291992188 567.4445190429688 700.4215698242188 566.5011596679688 698.8948974609375 565.461181640625 L 698.2149047851562 569.5611572265625 L 688.2048950195312 569.5611572265625 L 688.2048950195312 493.68115234375 M 699.77490234375 557.941162109375 C 700.8148803710938 558.461181640625 702.0015869140625 558.9178466796875 703.3348999023438 559.3111572265625 C 704.4749145507812 559.6644897460938 705.841552734375 559.9811401367188 707.4349365234375 560.2611694335938 C 709.034912109375 560.5344848632812 710.8248901367188 560.671142578125 712.804931640625 560.671142578125 C 714.7582397460938 560.671142578125 716.3549194335938 560.3878173828125 717.5949096679688 559.8211669921875 C 718.8348999023438 559.247802734375 719.804931640625 558.3211669921875 720.5048828125 557.0411376953125 C 721.2048950195312 555.7545166015625 721.6915893554688 554.0611572265625 721.9649047851562 551.961181640625 C 722.2449340820312 549.8611450195312 722.3848876953125 547.2644653320312 722.3848876953125 544.171142578125 C 722.3848876953125 540.7178344726562 722.2682495117188 537.8778076171875 722.034912109375 535.6511840820312 C 721.8082275390625 533.4178466796875 721.3282470703125 531.6511840820312 720.5949096679688 530.3511352539062 C 719.861572265625 529.0511474609375 718.7882690429688 528.1478271484375 717.3748779296875 527.6411743164062 C 715.9615478515625 527.134521484375 714.06494140625 526.8811645507812 711.6849365234375 526.8811645507812 C 710.1915893554688 526.8811645507812 708.7449340820312 526.9811401367188 707.3449096679688 527.18115234375 C 705.9448852539062 527.37451171875 704.6749267578125 527.58447265625 703.534912109375 527.8111572265625 C 702.228271484375 528.1044921875 700.9749145507812 528.4144897460938 699.77490234375 528.7411499023438 L 699.77490234375 557.941162109375 ZM 745.6544189453125 493.68115234375 L 757.2244262695312 493.68115234375 L 757.2244262695312 520.5411376953125 C 758.9511108398438 519.8878173828125 760.804443359375 519.2844848632812 762.784423828125 518.7311401367188 C 764.477783203125 518.27783203125 766.4244384765625 517.8544921875 768.6244506835938 517.461181640625 C 770.824462890625 517.0678100585938 773.0944213867188 516.8711547851562 775.4344482421875 516.8711547851562 C 777.7811279296875 516.8711547851562 779.9044189453125 517.12451171875 781.804443359375 517.6311645507812 C 783.7111206054688 518.1378173828125 785.324462890625 519.0344848632812 786.6444091796875 520.3211669921875 C 787.957763671875 521.6078491210938 788.9744262695312 523.3478393554688 789.6944580078125 525.5411376953125 C 790.4077758789062 527.7411499023438 790.764404296875 530.5478515625 790.764404296875 533.961181640625 L 790.764404296875 569.5611572265625 L 779.1444091796875 569.5611572265625 L 779.1444091796875 535.3811645507812 C 779.1444091796875 534.0144653320312 779.0477905273438 532.8178100585938 778.8544311523438 531.7911376953125 C 778.6610717773438 530.7644653320312 778.2444458007812 529.9178466796875 777.6044311523438 529.2511596679688 C 776.9710693359375 528.58447265625 776.0610961914062 528.0878295898438 774.8744506835938 527.7611694335938 C 773.687744140625 527.4345092773438 772.1177978515625 527.2711791992188 770.1644287109375 527.2711791992188 C 768.5977783203125 527.2711791992188 767.0577392578125 527.3711547851562 765.54443359375 527.5711669921875 C 764.0311279296875 527.7644653320312 762.6577758789062 527.9744873046875 761.4244384765625 528.201171875 C 759.957763671875 528.461181640625 758.5577392578125 528.7545166015625 757.2244262695312 529.0811767578125 L 757.2244262695312 569.5611572265625 L 745.6544189453125 569.5611572265625 L 745.6544189453125 493.68115234375 ZM 804.3734741210938 493.68115234375 L 815.9434814453125 493.68115234375 L 815.9434814453125 520.5411376953125 C 817.670166015625 519.8878173828125 819.5234985351562 519.2844848632812 821.5034790039062 518.7311401367188 C 823.1968383789062 518.27783203125 825.1434936523438 517.8544921875 827.343505859375 517.461181640625 C 829.54345703125 517.0678100585938 831.8134765625 516.8711547851562 834.1535034179688 516.8711547851562 C 836.5001831054688 516.8711547851562 838.6234741210938 517.12451171875 840.5234985351562 517.6311645507812 C 842.43017578125 518.1378173828125 844.04345703125 519.0344848632812 845.3634643554688 520.3211669921875 C 846.6768188476562 521.6078491210938 847.6934814453125 523.3478393554688 848.4135131835938 525.5411376953125 C 849.1268310546875 527.7411499023438 849.4835205078125 530.5478515625 849.4835205078125 533.961181640625 L 849.4835205078125 569.5611572265625 L 837.8634643554688 569.5611572265625 L 837.8634643554688 535.3811645507812 C 837.8634643554688 534.0144653320312 837.766845703125 532.8178100585938 837.573486328125 531.7911376953125 C 837.380126953125 530.7644653320312 836.9635009765625 529.9178466796875 836.323486328125 529.2511596679688 C 835.690185546875 528.58447265625 834.7801513671875 528.0878295898438 833.593505859375 527.7611694335938 C 832.4067993164062 527.4345092773438 830.8367919921875 527.2711791992188 828.8834838867188 527.2711791992188 C 827.3168334960938 527.2711791992188 825.7767944335938 527.3711547851562 824.2634887695312 527.5711669921875 C 822.7501831054688 527.7644653320312 821.3768310546875 527.9744873046875 820.1434936523438 528.201171875 C 818.6768188476562 528.461181640625 817.2767944335938 528.7545166015625 815.9434814453125 529.0811767578125 L 815.9434814453125 569.5611572265625 L 804.3734741210938 569.5611572265625 L 804.3734741210938 493.68115234375 ZM 863.092529296875 518.0511474609375 L 873.1025390625 518.0511474609375 L 873.7825317382812 523.6611328125 C 876.3225708007812 522.0011596679688 879.169189453125 520.634521484375 882.3225708007812 519.5611572265625 C 885.4825439453125 518.48779296875 889.0325317382812 517.8544921875 892.9725341796875 517.6611328125 L 892.87255859375 529.671142578125 C 888.805908203125 529.73779296875 885.2825317382812 529.941162109375 882.3025512695312 530.2811279296875 C 879.3225708007812 530.6211547851562 876.77587890625 531.2144775390625 874.6625366210938 532.0611572265625 L 874.6625366210938 569.5611572265625 L 863.092529296875 569.5611572265625 L 863.092529296875 518.0511474609375 Z" transform="matrix(1, 0, 0, 1, -544.0843505859375, -472.03253173828125)" style="fill: rgb(51, 51, 51); white-space: pre; color: rgb(51, 51, 51);"/></svg>